<?xml version="1.0" encoding="utf-8"?>
<!-- Generator: Adobe Illustrator 27.5.0, SVG Export Plug-In . SVG Version: 6.00 Build 0)  -->
<svg version="1.1" xmlns="http://www.w3.org/2000/svg" xmlns:xlink="http://www.w3.org/1999/xlink" x="0px" y="0px"
	 viewBox="0 0 2200 2200" style="enable-background:new 0 0 2200 2200;" xml:space="preserve">
<g id="background">
	<rect style="fill:#353B49;" width="2200" height="2200"/>
</g>
<g id="Objects">
	<g>
		<linearGradient id="SVGID_1_" gradientUnits="userSpaceOnUse" x1="874.5676" y1="848.3976" x2="1624.1946" y2="1709.6711">
			<stop  offset="0" style="stop-color:#000000"/>
			<stop  offset="0.7711" style="stop-color:#000000;stop-opacity:0"/>
		</linearGradient>
		<polygon style="opacity:0.51;fill:url(#SVGID_1_);" points="660.845,2201.003 346.724,1886.882 1853.589,380.017 2200.91,727.338 
			2200,2200 		"/>
		<path style="fill:#FFFFFF;" d="M1892.394,706.424v1086.017c0,73.762-59.796,133.558-133.558,133.558H441.164
			c-73.762,0-133.558-59.796-133.558-133.558V706.424l42.575-43.406h1493.806L1892.394,706.424z"/>
		
			<linearGradient id="SVGID_00000172431006032964867480000014338984243002267061_" gradientUnits="userSpaceOnUse" x1="1100" y1="362.7383" x2="1100" y2="704.7449">
			<stop  offset="0" style="stop-color:#E85F43"/>
			<stop  offset="1" style="stop-color:#E83636"/>
		</linearGradient>
		<path style="fill:url(#SVGID_00000172431006032964867480000014338984243002267061_);" d="M1892.394,473.695v232.729H307.606
			V473.695c0-73.164,59.319-132.483,132.483-132.483h1319.822C1833.075,341.212,1892.394,400.531,1892.394,473.695z"/>
		<path d="M680.984,1499.232l57.939-79.365c33.183,31.671,73.402,54.893,118.935,54.893c52.979,0,88.262-23.114,88.262-64.825
			c0-47.645-27.837-76.995-145.875-76.995v-89.019c97.519,0,128.18-29.651,128.18-72.674c0-38.196-24.323-59.804-66.943-59.804
			c-38.606,0-67.858,17.491-101.444,47.453l-63.573-76.55c49.982-42.939,104.586-69.482,170.65-69.482
			c112.735,0,187.251,53.495,187.251,148.926c0,55.899-32.07,95.968-90.489,120.556v3.417
			c62.742,17.902,108.185,62.14,108.185,132.322c0,101.059-92.62,158.07-201.828,158.07
			C782.349,1576.154,720.806,1544.989,680.984,1499.232z"/>
		<path d="M1173.081,1464.503h118.646v-314.046h-101.66V1072.5c58.228-11.064,96.641-25.845,134.657-49.38h92.645v441.383h101.648
			v101.396h-345.935V1464.503z"/>
		<g>
			
				<radialGradient id="SVGID_00000154411695350867087530000013193418220613866406_" cx="572.9977" cy="484.891" r="48.8751" gradientUnits="userSpaceOnUse">
				<stop  offset="0" style="stop-color:#8C1F1F"/>
				<stop  offset="0.8426" style="stop-color:#450F0F"/>
				<stop  offset="1" style="stop-color:#2B0808"/>
			</radialGradient>
			<circle style="fill:url(#SVGID_00000154411695350867087530000013193418220613866406_);" cx="572.998" cy="484.891" r="48.875"/>
			
				<linearGradient id="SVGID_00000005265846835697724440000007101667258148840072_" gradientUnits="userSpaceOnUse" x1="543.475" y1="385.742" x2="602.5205" y2="385.742">
				<stop  offset="0" style="stop-color:#4F4F4F"/>
				<stop  offset="0.2929" style="stop-color:#BDBDBD"/>
				<stop  offset="0.6202" style="stop-color:#BDBDBD"/>
				<stop  offset="1" style="stop-color:#4F4F4F"/>
			</linearGradient>
			<path style="fill:url(#SVGID_00000005265846835697724440000007101667258148840072_);" d="M572.998,274L572.998,274
				c-16.305,0-29.523,13.218-29.523,29.523v164.439c0,16.305,13.218,29.523,29.523,29.523h0c16.305,0,29.523-13.218,29.523-29.523
				V303.523C602.521,287.218,589.303,274,572.998,274z"/>
		</g>
		<g>
			
				<radialGradient id="SVGID_00000130622087863202265750000002875712749576359851_" cx="924.3326" cy="484.891" r="48.8751" gradientUnits="userSpaceOnUse">
				<stop  offset="0" style="stop-color:#8C1F1F"/>
				<stop  offset="0.8426" style="stop-color:#450F0F"/>
				<stop  offset="1" style="stop-color:#2B0808"/>
			</radialGradient>
			<circle style="fill:url(#SVGID_00000130622087863202265750000002875712749576359851_);" cx="924.333" cy="484.891" r="48.875"/>
			
				<linearGradient id="SVGID_00000042706484417088978890000002228759392645341580_" gradientUnits="userSpaceOnUse" x1="894.8098" y1="385.742" x2="953.8553" y2="385.742">
				<stop  offset="0" style="stop-color:#4F4F4F"/>
				<stop  offset="0.2929" style="stop-color:#BDBDBD"/>
				<stop  offset="0.6202" style="stop-color:#BDBDBD"/>
				<stop  offset="1" style="stop-color:#4F4F4F"/>
			</linearGradient>
			<path style="fill:url(#SVGID_00000042706484417088978890000002228759392645341580_);" d="M924.333,274L924.333,274
				c-16.305,0-29.523,13.218-29.523,29.523v164.439c0,16.305,13.218,29.523,29.523,29.523h0c16.305,0,29.523-13.218,29.523-29.523
				V303.523C953.855,287.218,940.638,274,924.333,274z"/>
		</g>
		<g>
			
				<radialGradient id="SVGID_00000051378692298139413190000003909125778945181570_" cx="1275.6675" cy="484.891" r="48.8751" gradientUnits="userSpaceOnUse">
				<stop  offset="0" style="stop-color:#8C1F1F"/>
				<stop  offset="0.8426" style="stop-color:#450F0F"/>
				<stop  offset="1" style="stop-color:#2B0808"/>
			</radialGradient>
			<circle style="fill:url(#SVGID_00000051378692298139413190000003909125778945181570_);" cx="1275.667" cy="484.891" r="48.875"/>
			
				<linearGradient id="SVGID_00000177449487390280364070000003045451784145816980_" gradientUnits="userSpaceOnUse" x1="1246.1447" y1="385.742" x2="1305.1902" y2="385.742">
				<stop  offset="0" style="stop-color:#4F4F4F"/>
				<stop  offset="0.2929" style="stop-color:#BDBDBD"/>
				<stop  offset="0.6202" style="stop-color:#BDBDBD"/>
				<stop  offset="1" style="stop-color:#4F4F4F"/>
			</linearGradient>
			<path style="fill:url(#SVGID_00000177449487390280364070000003045451784145816980_);" d="M1275.667,274L1275.667,274
				c-16.305,0-29.523,13.218-29.523,29.523v164.439c0,16.305,13.218,29.523,29.523,29.523h0c16.305,0,29.523-13.218,29.523-29.523
				V303.523C1305.19,287.218,1291.972,274,1275.667,274z"/>
		</g>
		<g>
			
				<radialGradient id="SVGID_00000065790416548569274610000007006352084009577878_" cx="1627.0023" cy="484.891" r="48.8751" gradientUnits="userSpaceOnUse">
				<stop  offset="0" style="stop-color:#8C1F1F"/>
				<stop  offset="0.8426" style="stop-color:#450F0F"/>
				<stop  offset="1" style="stop-color:#2B0808"/>
			</radialGradient>
			<circle style="fill:url(#SVGID_00000065790416548569274610000007006352084009577878_);" cx="1627.002" cy="484.891" r="48.875"/>
			
				<linearGradient id="SVGID_00000101086518542642051980000005696593792509216694_" gradientUnits="userSpaceOnUse" x1="1597.4795" y1="385.742" x2="1656.525" y2="385.742">
				<stop  offset="0" style="stop-color:#4F4F4F"/>
				<stop  offset="0.2929" style="stop-color:#BDBDBD"/>
				<stop  offset="0.6202" style="stop-color:#BDBDBD"/>
				<stop  offset="1" style="stop-color:#4F4F4F"/>
			</linearGradient>
			<path style="fill:url(#SVGID_00000101086518542642051980000005696593792509216694_);" d="M1627.002,274L1627.002,274
				c-16.305,0-29.523,13.218-29.523,29.523v164.439c0,16.305,13.218,29.523,29.523,29.523h0c16.305,0,29.523-13.218,29.523-29.523
				V303.523C1656.525,287.218,1643.307,274,1627.002,274z"/>
		</g>
	</g>
</g>
</svg>
